<svg version="1.1" id="レイヤー_1" xmlns="http://www.w3.org/2000/svg" x="0" y="0" viewBox="0 0 500 539.7" xml:space="preserve"><style>.st0{fill:white}</style><g id="グループ_33"><g id="グループ_32"><path id="パス_1" class="st0" d="M92.5 132.1h32l22.7 22.7 22.7 22.7h160.3l22.7-22.7 22.7-22.7h32V100h13.3V68l-13.2-13.3-9.4-9.4-22.7-22.7L352.8 0H147.2l-22.7 22.7-22.7 22.7-9.4 9.4L79.2 68v32h13.3v32.1zm32-45.3V68l22.7-22.7L160.5 32h179l13.3 13.3L375.4 68v32h-32v18.7L330.2 132l-13.3 13.3H183.1L169.9 132l-13.3-13.3V100h-32l-.1-13.2z"/><path id="パス_2" class="st0" d="M330.1 187H169.9v128.2h160.2v-32.1H201.9V219h128.2v-32z"/><path id="パス_3" class="st0" d="M298 421h32.1v-96.2H169.9V421h32v-64.1H234V453h32v-96.1h32V421z"/><path id="パス_4" class="st0" d="M32 237.8h96.1v32h32V187l-22.7-22.7-22.7-22.7H0v128.2h32v-32zm0-64.1h69.6l13.3 13.3 13.3 13.3v5.5H32v-32.1z"/><path id="パス_5" class="st0" d="M467.9 141.7H385l-22.7 22.7-22.6 22.6v82.9h32.1v-32H468v32h32V141.7h-32.1zm0 64.1h-96.1v-5.5l13.3-13.3 13.3-13.3H468l-.1 32.1z"/><path id="パス_6" class="st0" d="M45.3 407.7h114.9v-82.9l-22.7-22.7-22.7-22.7H0v82.9L22.7 385l22.6 22.7zM32 343.6v-32h69.6l13.3 13.3 13.3 13.3v37.5H58.6l-13.3-13.3L32 349.1v-5.5z"/><path id="パス_7" class="st0" d="M467.9 279.5H385l-22.7 22.7-22.7 22.7v82.9h115l22.7-22.7 22.7-22.6v-82.9h-32.1zm0 64.1v5.5l-13.3 13.3-13.3 13.3h-69.6v-37.5l13.3-13.3 13.3-13.3H468l-.1 32z"/><path id="長方形_23" class="st0" d="M.9 467.7H500v10H.9z"/><path id="パス_8" class="st0" d="M89.9 497.7H58.4v41.9h52.4v-10.5H68.9V524h41.9v-10.5H68.9v-5.2h41.9v-10.5l-20.9-.1z"/><path id="パス_9" class="st0" d="M479 497.7h-31.5v41.9H500v-10.5h-42V524h42v-10.5h-42v-5.2h42v-10.5l-21-.1z"/><path id="パス_10" class="st0" d="M308.6 497.7h-31.5v41.9h10.5v-31.5H298v31.5h10.5v-31.5H319v31.5h10.5v-41.9h-20.9z"/><path id="パス_11" class="st0" d="M262.3 508.2h-21.9l-1.3-1.2-9.3-9.2H215l9.2 9.2 7.4 7.4 4.3 4.3h26.2v10.5h-31.5v10.5h42v-42h-10.5l.2 10.5z"/><path id="パス_12" class="st0" d="M209.8 497.7h-37.6v41.9h52.4v-27.1l-7.4-7.4-7.4-7.4zm4.4 21v10.5h-31.5v-21h22.8l4.4 4.3 4.3 4.3v1.9z"/><path id="パス_13" class="st0" d="M39.6 497.7H2v41.9h10.5v-10.5H44v10.5h10.5v-27.1l-7.4-7.4-7.5-7.4zm4.4 21H12.5v-10.5h22.8l4.3 4.4 4.3 4.3.1 1.8z"/><path id="パス_14" class="st0" d="M147.2 497.7h-16.6l-7.4 7.4-7.4 7.4v27.1h10.5v-10.5h31.5v10.5h10.5v-41.9h-21.1zm10.5 21h-31.5v-1.8l4.4-4.3 4.3-4.4h22.8v10.5z"/><path id="パス_15" class="st0" d="M365 497.7h-16.6l-7.4 7.4-7.4 7.4v27.1H344v-10.5h31.5v10.5H386v-41.9h-21zm10.5 21H344v-1.8l4.3-4.3 4.4-4.4h22.8v10.5z"/><path id="パス_16" class="st0" d="M428.5 497.7h-37.6v41.9h52.4v-27.1l-7.4-7.4-7.4-7.4zm4.3 21v10.5h-31.5v-21h22.8l4.4 4.3 4.3 4.3v1.9z"/><path id="パス_17" class="st0" d="M298 267.1h32.1v-32H234v32h64z"/><path id="パス_18" class="st0" d="M268.3 132.8h32v-32.1h-96.1v32.1h64.1z"/></g></g></svg>